<?xml version="1.0" encoding="UTF-8"?>
<!--
  Source: https://www.svgrepo.com/svg/175654/quill-and-piece-of-paper
  Original listing points to publicdomainvectors.org and marks license as Public Domain.
-->
<svg xmlns="http://www.w3.org/2000/svg" viewBox="0 0 453.088 453.087" aria-hidden="true">
  <path d="M451.396 71.67c-1.366-1.472-3.352-2.207-5.344-1.984-19.591 2.194-38.195 6.609-55.299 13.12-2.261.861-3.834 2.936-4.053 5.345-.349 3.822-.816 18.143-.816 18.143s-1.688-10.207-2.144-12.318c-.406-1.88-1.646-3.473-3.365-4.331-1.721-.858-3.739-.887-5.482-.079-16.346 7.561-27.444 15.714-37.006 23.398-.908.73-1.597 1.698-1.992 2.795-5.832 16.237-5.766 27.106-4.826 36.433 0 0-3.398-9.997-5.104-13.683-1.312-2.844-1.867-4.557-4.221-5.497-2.355-.941-5.043-.387-6.834 1.406-28.238 28.295-41.062 57.879-48.808 79.972-5.756 16.42-8.539 29.961-9.861 38.428-14.618 16.445-22.645 28.103-22.975 28.586-1.027 1.496-1.41 3.304-1.078 5.089.334 1.782 1.342 3.332 2.82 4.346a6.78 6.78 0 0 0 3.852 1.203c2.244 0 4.343-1.104 5.607-2.947.072-.106 7.49-10.84 20.871-26.029 44.602-3.93 83.006-20.207 114.143-48.384 1.813-1.641 2.52-4.178 1.814-6.52-.703-2.341-2.691-4.067-5.11-4.436-5.118-.781-9.998-1.749-14.503-2.879 10.943-1.537 24.275-5.186 39.623-10.843 1.115-.412 2.094-1.13 2.822-2.072 34.408-44.58 46.091-96.068 48.852-110.787.38-2.025-.206-4.057-1.573-5.528z"/>
  <path d="M396.089 223.976a44.09 44.09 0 0 1-4.622 5.539c-5.853 5.297-11.937 10.207-18.242 14.74l32.227 111.594H32.14l46.554-161.208h172.035c3.397-8.426 7.667-17.768 13.19-27.592H68.317c-6.145 0-11.549 4.064-13.254 9.968l-54.521 188.8c-1.203 4.165-.378 8.654 2.229 12.119 2.605 3.466 6.689 5.505 11.025 5.505h410c.009 0 .014 0 .021 0 7.618 0 13.797-6.179 13.797-13.798 0-1.606-.275-3.149-.781-4.586z"/>
</svg>
