<?xml version="1.0" encoding="UTF-8"?>
<!--
  Trash can path reused from Priorities:
  wizardry-apps priorities icon source
-->
<svg xmlns="http://www.w3.org/2000/svg" viewBox="0 0 24 24" aria-hidden="true">
  <path fill="none" stroke="#ffffff" stroke-width="1.9" stroke-linecap="round" stroke-linejoin="round" d="M14.74 9l-.35 9m-4.78 0L9.26 9m9.97-3.21c.34.05.68.1 1.02.16M4.77 5.79c.34-.06.68-.11 1.02-.16m0 0L6.85 19.67A2 2 0 0 0 8.84 21h6.32a2 2 0 0 0 1.99-1.83l1.06-13.54M5.79 5.63A48.1 48.1 0 0 1 12 5c2.12 0 4.2.14 6.21.41m-9.13 0V4.04A2 2 0 0 1 11.08 2h1.84a2 2 0 0 1 2 2.04v1.37"/>
</svg>
